{"glyphs":{"0":{"ha":814,"x_min":57,"x_max":757,"o":"m 757 347 q 665 83 757 183 q 407 -19 569 -19 q 150 86 246 -19 q 57 350 57 188 l 57 650 q 151 917 57 814 q 407 1019 244 1019 q 661 917 565 1019 q 757 654 757 814 l 757 347 m 579 340 l 579 661 q 406 860 579 860 q 232 661 232 860 l 232 319 q 278 190 232 239 q 406 140 325 140 q 579 340 579 140 z "},"1":{"ha":814,"x_min":165,"x_max":651,"o":"m 651 0 l 165 0 l 165 158 l 324 158 l 324 858 l 200 858 l 200 1000 l 499 1000 l 499 158 l 651 158 l 651 0 z "},"2":{"ha":814,"x_min":81,"x_max":733,"o":"m 733 0 l 81 0 l 81 156 q 301 368 214 290 q 426 481 401 457 q 535 603 508 558 q 563 701 563 647 q 521 818 563 775 q 406 861 479 861 q 279 803 315 861 q 243 663 243 744 l 81 663 l 81 665 q 168 923 81 826 q 414 1019 256 1019 q 644 933 554 1019 q 733 707 733 846 q 701 557 733 619 q 476 314 650 456 q 308 161 400 251 l 733 161 l 733 0 z "},"3":{"ha":814,"x_min":64,"x_max":744,"o":"m 744 326 q 647 78 744 176 q 400 -19 550 -19 q 156 78 247 -19 q 64 329 64 175 l 236 329 q 394 142 236 142 q 522 188 474 142 q 569 314 569 235 q 382 524 569 524 q 281 504 346 524 l 214 604 l 454 842 l 119 842 l 119 1000 l 688 1000 l 688 853 l 485 663 q 744 326 744 614 z "},"4":{"ha":814,"x_min":51,"x_max":761,"o":"m 761 175 l 657 175 l 657 0 l 494 0 l 494 175 l 51 175 l 51 318 l 493 1000 l 657 1000 l 657 321 l 761 321 l 761 175 m 494 321 l 494 769 l 219 321 l 494 321 z "},"5":{"ha":814,"x_min":50,"x_max":764,"o":"m 764 340 q 656 83 764 185 q 393 -19 549 -19 q 155 66 247 -19 q 50 297 63 151 l 219 297 q 279 186 231 229 q 397 143 328 143 q 535 199 481 143 q 590 339 590 256 q 536 478 590 425 q 396 531 482 531 q 238 443 285 531 l 92 475 l 183 1000 l 669 1000 l 669 842 l 311 842 l 268 631 q 431 685 331 685 q 667 583 571 685 q 764 340 764 481 z "},"6":{"ha":814,"x_min":49,"x_max":764,"o":"m 764 343 q 659 88 764 194 q 406 -19 554 -19 q 153 83 257 -19 q 49 333 49 186 q 301 840 49 483 q 410 1000 350 910 l 603 1000 q 374 665 481 828 q 461 681 417 681 q 681 575 592 681 q 764 343 764 476 m 592 338 q 540 476 592 421 q 406 531 489 531 q 270 476 326 531 q 214 343 214 422 q 267 202 214 261 q 403 143 321 143 q 540 198 488 143 q 592 338 592 253 z "},"7":{"ha":814,"x_min":124,"x_max":708,"o":"m 708 844 l 346 0 l 161 0 l 536 843 l 124 843 l 124 1000 l 708 1000 l 708 844 z "},"8":{"ha":814,"x_min":81,"x_max":731,"o":"m 731 306 q 639 72 731 163 q 403 -19 547 -19 q 172 71 264 -19 q 81 300 81 161 q 232 554 81 481 q 129 750 129 626 q 210 942 129 864 q 404 1019 290 1019 q 603 943 521 1019 q 685 751 685 867 q 578 554 685 622 q 731 306 731 488 m 524 746 q 492 833 524 797 q 408 868 460 868 q 324 833 357 868 q 290 747 290 799 q 322 657 290 693 q 406 621 353 621 q 492 656 461 621 q 524 746 524 690 m 249 307 q 292 188 249 238 q 404 139 336 139 q 519 187 475 139 q 564 306 564 235 q 522 425 564 379 q 407 471 479 471 q 292 425 335 471 q 249 307 249 379 z "},"9":{"ha":814,"x_min":50,"x_max":764,"o":"m 406 0 l 210 0 q 439 335 332 172 q 353 319 396 319 q 133 424 222 319 q 50 657 50 524 q 154 914 50 808 q 408 1019 258 1019 q 666 918 568 1019 q 764 657 764 817 q 744 550 764 607 q 571 240 708 444 q 406 0 492 124 m 597 657 q 544 797 597 738 q 413 857 492 857 q 273 803 325 857 q 221 663 221 750 q 274 525 221 579 q 410 471 326 471 q 542 525 488 471 q 597 657 597 579 z "}," ":{"ha":417,"x_min":0,"x_max":0,"o":""},"!":{"ha":419,"x_min":131,"x_max":290,"o":"m 290 268 l 131 268 l 131 1000 l 290 1000 l 290 268 m 289 0 l 132 0 l 132 178 l 289 178 l 289 0 z "},"\"":{"ha":474,"x_min":58,"x_max":415,"o":"m 415 990 l 403 603 l 296 603 l 285 990 l 415 990 m 189 990 l 176 603 l 71 603 l 58 990 l 189 990 z "},"#":{"ha":1021,"x_min":57,"x_max":965,"o":"m 965 690 l 933 578 l 740 578 l 689 419 l 893 419 l 861 306 l 657 306 l 565 14 l 442 14 l 533 306 l 374 306 l 283 14 l 160 14 l 249 306 l 57 306 l 88 419 l 283 419 l 333 578 l 129 578 l 161 690 l 365 690 l 457 979 l 581 979 l 489 690 l 647 690 l 739 979 l 863 979 l 772 690 l 965 690 m 617 578 l 457 578 l 406 418 l 565 418 l 617 578 z "},"$":{"ha":814,"x_min":97,"x_max":693,"o":"m 693 310 q 639 119 693 197 q 474 17 581 35 l 474 -150 l 335 -150 l 335 11 q 159 106 221 31 q 97 299 97 182 l 250 299 q 289 190 250 229 q 397 151 328 151 q 497 192 460 151 q 533 296 533 232 q 461 411 533 367 q 329 472 456 415 q 121 714 121 565 q 178 890 121 818 q 335 985 235 963 l 335 1128 l 474 1128 l 474 985 q 619 896 567 964 q 671 732 671 828 l 519 732 q 485 817 519 783 q 400 850 451 850 q 312 819 346 850 q 278 733 278 788 q 343 636 278 675 q 457 587 344 636 q 622 483 569 538 q 693 310 693 411 z "},"%":{"ha":1215,"x_min":56,"x_max":1163,"o":"m 1163 226 q 1090 53 1163 126 q 917 -19 1017 -19 q 743 53 815 -19 q 671 226 671 125 q 742 400 671 329 q 917 471 814 471 q 1091 400 1019 471 q 1163 226 1163 329 m 917 1015 l 413 -17 l 299 -17 l 803 1015 l 917 1015 m 300 1021 q 474 949 401 1021 q 547 775 547 876 q 475 601 547 672 q 300 531 403 531 q 126 601 197 531 q 56 775 56 672 q 127 949 56 876 q 300 1021 199 1021 m 1039 226 q 1003 314 1039 278 q 915 350 967 350 q 826 315 861 350 q 790 226 790 281 q 827 138 790 175 q 915 100 864 100 q 1003 137 968 100 q 1039 226 1039 174 m 424 775 q 388 864 424 828 q 299 900 351 900 q 210 864 246 900 q 174 775 174 828 q 210 687 174 722 q 299 651 246 651 q 388 687 351 651 q 424 775 424 722 z "},"&":{"ha":988,"x_min":85,"x_max":972,"o":"m 972 111 l 869 0 l 686 167 q 390 -19 574 -19 q 176 67 267 -19 q 85 278 85 154 q 272 561 85 443 q 163 767 163 649 q 235 945 163 875 q 415 1015 307 1015 q 584 944 514 1015 q 654 775 654 874 q 500 551 654 644 q 643 414 540 504 q 733 642 681 496 l 903 642 q 763 304 836 454 l 972 111 m 501 776 q 476 844 501 817 q 411 871 451 871 q 344 844 371 871 q 318 776 318 817 q 400 642 318 704 q 501 776 501 701 m 569 275 q 376 461 469 363 q 251 285 251 386 q 292 183 251 225 q 393 140 333 140 q 569 275 500 140 z "},"'":{"ha":244,"x_min":58,"x_max":188,"o":"m 188 990 l 176 603 l 71 603 l 58 990 l 188 990 z "},"(":{"ha":443,"x_min":104,"x_max":394,"o":"m 394 -299 q 170 -135 236 -236 q 104 138 104 -35 l 104 603 q 394 1029 104 914 l 394 842 q 289 747 317 806 q 268 604 268 700 l 268 139 q 290 -11 268 42 q 394 -117 318 -76 l 394 -299 z "},")":{"ha":443,"x_min":49,"x_max":339,"o":"m 339 138 q 273 -135 339 -35 q 49 -299 207 -235 l 49 -117 q 153 -14 125 -78 q 175 133 175 38 l 175 615 q 151 751 175 704 q 49 842 124 807 l 49 1029 q 339 603 339 913 l 339 138 z "},"*":{"ha":754,"x_min":93,"x_max":663,"o":"m 663 747 l 468 693 l 596 531 l 496 457 l 378 628 l 260 457 l 158 531 l 286 693 l 93 747 l 135 867 l 319 801 l 318 1000 l 436 1000 l 435 801 l 621 867 l 663 747 z "},"+":{"ha":1082,"x_min":149,"x_max":935,"o":"m 935 338 l 606 338 l 606 0 l 478 0 l 478 338 l 149 338 l 149 464 l 478 464 l 478 799 l 606 799 l 606 464 l 935 464 l 935 338 z "},",":{"ha":408,"x_min":125,"x_max":285,"o":"m 285 179 l 285 -4 q 125 -185 285 -171 l 125 -89 q 178 -62 165 -86 q 188 0 186 -47 l 125 0 l 125 179 l 285 179 z "},"-":{"ha":444,"x_min":47,"x_max":399,"o":"m 399 304 l 47 304 l 47 454 l 399 454 l 399 304 z "},".":{"ha":408,"x_min":124,"x_max":285,"o":"m 285 0 l 124 0 l 124 185 l 285 185 l 285 0 z "},"/":{"ha":493,"x_min":-4,"x_max":474,"o":"m 474 1015 l 139 -131 l -4 -131 l 332 1015 l 474 1015 z "},":":{"ha":413,"x_min":125,"x_max":286,"o":"m 286 533 l 125 533 l 125 717 l 286 717 l 286 533 m 286 0 l 125 0 l 125 185 l 286 185 l 286 0 z "},";":{"ha":413,"x_min":125,"x_max":288,"o":"m 286 533 l 125 533 l 125 717 l 286 717 l 286 533 m 288 179 l 288 -7 q 128 -185 288 -171 l 128 -89 q 181 -61 168 -83 q 189 0 189 -44 l 125 0 l 125 179 l 288 179 z "},"<":{"ha":1082,"x_min":153,"x_max":931,"o":"m 931 22 l 153 342 l 153 461 l 931 782 l 931 643 l 314 401 l 931 158 l 931 22 z "},"=":{"ha":1082,"x_min":149,"x_max":935,"o":"m 935 485 l 149 485 l 149 611 l 935 611 l 935 485 m 935 192 l 149 192 l 149 317 l 935 317 l 935 192 z "},">":{"ha":1082,"x_min":153,"x_max":931,"o":"m 931 342 l 153 22 l 153 158 l 768 401 l 153 643 l 153 782 l 931 461 l 931 342 z "},"?":{"ha":714,"x_min":29,"x_max":646,"o":"m 646 742 q 608 599 646 654 q 528 500 582 560 q 444 404 467 433 q 407 276 407 354 l 243 276 q 304 469 243 381 q 436 629 371 550 q 472 733 472 674 q 331 863 472 863 q 193 699 193 863 l 29 699 l 29 714 q 117 935 29 850 q 340 1019 204 1019 q 557 949 474 1019 q 646 742 646 872 m 401 0 l 243 0 l 243 179 l 401 179 l 401 0 z "},"@":{"ha":1407,"x_min":72,"x_max":1335,"o":"m 1335 536 q 1233 224 1335 356 q 947 79 1122 79 q 811 200 806 79 q 604 82 735 82 q 443 143 499 82 q 388 311 388 204 q 476 571 388 460 q 715 689 571 689 q 882 586 832 689 l 921 665 l 1011 665 l 913 269 q 907 229 907 247 q 975 165 907 165 q 1063 190 1021 165 q 1190 335 1143 238 q 1235 524 1235 425 q 1090 825 1235 717 q 761 924 960 924 q 344 765 513 924 q 172 357 172 604 q 331 1 172 133 q 706 -122 478 -122 q 1132 8 944 -122 l 1171 -49 q 714 -200 967 -200 q 267 -57 446 -200 q 72 358 72 97 q 279 829 72 644 q 767 1007 478 1007 q 1156 888 994 1007 q 1335 536 1335 756 m 857 489 q 722 615 835 615 q 551 511 615 615 q 497 307 497 421 q 528 201 497 240 q 626 157 563 157 q 690 169 660 157 q 817 326 788 208 l 857 489 z "},"A":{"ha":892,"x_min":-28,"x_max":914,"o":"m 914 0 l 726 0 l 632 254 l 253 254 l 156 0 l -28 0 l 365 1000 l 522 1000 l 914 0 m 576 410 l 444 783 l 310 410 l 576 410 z "},"B":{"ha":763,"x_min":89,"x_max":721,"o":"m 721 307 q 613 69 721 150 q 354 0 518 0 l 89 0 l 89 1000 l 343 1000 q 571 939 488 1000 q 667 731 667 869 q 557 539 667 603 q 678 452 635 514 q 721 307 721 390 m 496 721 q 344 842 496 842 l 258 842 l 258 592 l 321 592 q 443 615 403 592 q 496 721 496 644 m 550 297 q 374 449 550 449 l 258 449 l 258 158 l 372 158 q 526 213 485 158 q 550 297 550 243 z "},"C":{"ha":1063,"x_min":44,"x_max":1019,"o":"m 1019 282 q 837 59 957 138 q 560 -19 717 -19 q 193 133 342 -19 q 44 506 44 286 q 194 869 44 719 q 558 1019 344 1019 q 841 940 718 1019 q 1019 713 964 860 l 824 713 q 557 856 731 856 q 319 751 417 856 q 221 506 221 647 q 317 253 221 361 q 557 144 414 144 q 818 282 731 144 l 1019 282 z "},"D":{"ha":967,"x_min":88,"x_max":922,"o":"m 922 499 q 772 126 922 258 q 385 0 629 0 l 88 0 l 88 1000 l 425 1000 q 786 863 650 1000 q 922 499 922 725 m 750 496 q 656 751 750 660 q 399 842 563 842 l 258 842 l 258 158 l 417 158 q 662 249 574 158 q 750 496 750 339 z "},"E":{"ha":696,"x_min":89,"x_max":617,"o":"m 617 0 l 89 0 l 89 1000 l 617 1000 l 617 844 l 261 844 l 261 582 l 615 582 l 615 428 l 261 428 l 261 160 l 617 160 l 617 0 z "},"F":{"ha":660,"x_min":88,"x_max":593,"o":"m 593 1000 l 593 844 l 260 844 l 260 578 l 590 578 l 590 424 l 260 424 l 260 0 l 88 0 l 88 1000 l 593 1000 z "},"G":{"ha":1117,"x_min":43,"x_max":1075,"o":"m 1075 521 q 933 136 1067 283 q 558 -19 792 -19 q 190 131 336 -19 q 43 506 43 282 q 197 870 43 721 q 567 1019 351 1019 q 844 944 724 1019 q 1021 728 964 869 l 815 728 q 558 856 736 856 q 319 751 418 856 q 219 506 219 647 q 313 249 219 353 q 558 144 407 144 q 875 367 796 144 l 461 367 l 461 521 l 1075 521 z "},"H":{"ha":907,"x_min":88,"x_max":819,"o":"m 819 0 l 647 0 l 647 426 l 260 426 l 260 0 l 88 0 l 88 1000 l 260 1000 l 260 588 l 647 588 l 647 1000 l 819 1000 l 819 0 z "},"I":{"ha":351,"x_min":90,"x_max":263,"o":"m 263 0 l 90 0 l 90 1000 l 263 1000 l 263 0 z "},"J":{"ha":663,"x_min":7,"x_max":581,"o":"m 581 301 q 283 -18 581 -18 q 82 53 157 -18 q 7 250 7 125 l 182 250 l 182 244 q 288 138 181 138 q 389 192 361 138 q 408 311 408 229 l 408 1000 l 581 1000 l 581 301 z "},"K":{"ha":813,"x_min":89,"x_max":824,"o":"m 824 1000 l 444 508 l 822 0 l 611 0 l 261 497 l 261 0 l 89 0 l 89 1000 l 261 1000 l 261 508 l 626 1000 l 824 1000 z "},"L":{"ha":606,"x_min":89,"x_max":581,"o":"m 581 0 l 89 0 l 89 1000 l 261 1000 l 261 160 l 581 160 l 581 0 z "},"M":{"ha":1203,"x_min":88,"x_max":1113,"o":"m 1113 0 l 949 0 l 951 606 q 954 708 951 639 q 957 814 957 778 l 956 813 l 661 0 l 542 0 l 246 814 l 244 813 q 247 707 244 776 q 250 604 250 638 l 254 0 l 88 0 l 88 1000 l 335 1000 l 601 251 l 868 1000 l 1113 1000 l 1113 0 z "},"N":{"ha":969,"x_min":89,"x_max":881,"o":"m 881 0 l 722 0 l 249 739 l 257 0 l 89 0 l 89 1000 l 256 1000 l 721 276 l 714 1000 l 881 1000 l 881 0 z "},"O":{"ha":1121,"x_min":44,"x_max":1076,"o":"m 1076 504 q 928 133 1076 285 q 561 -19 779 -19 q 195 134 346 -19 q 44 504 44 288 q 197 868 44 717 q 563 1019 350 1019 q 926 869 776 1019 q 1076 504 1076 718 m 900 507 q 799 751 900 646 q 561 856 699 856 q 322 750 422 856 q 221 504 221 644 q 319 251 221 358 q 561 144 418 144 q 807 253 710 144 q 900 507 900 357 z "},"P":{"ha":754,"x_min":89,"x_max":724,"o":"m 89 0 l 89 1000 l 364 1000 q 619 928 525 1000 q 724 692 724 847 q 625 458 724 540 q 379 381 533 381 l 260 381 l 260 0 l 89 0 m 549 689 q 358 844 549 844 l 260 844 l 260 538 l 353 538 q 492 565 446 538 q 549 689 549 601 z "},"Q":{"ha":1124,"x_min":43,"x_max":1108,"o":"m 1108 -10 q 836 61 956 -4 q 560 -19 708 -19 q 192 133 342 -19 q 43 504 43 286 q 195 868 43 717 q 560 1019 347 1019 q 926 866 776 1019 q 1075 496 1075 713 q 963 175 1075 308 q 1108 146 1029 146 l 1108 -10 m 900 507 q 799 751 900 647 q 560 856 699 856 q 320 750 421 856 q 219 504 219 644 q 318 251 219 358 q 560 144 417 144 q 806 253 707 144 q 900 507 900 357 z "},"R":{"ha":817,"x_min":89,"x_max":774,"o":"m 774 0 l 565 0 l 260 436 l 260 0 l 89 0 l 89 1000 l 403 1000 q 665 921 571 1000 q 768 672 768 836 q 689 467 768 554 q 493 374 610 379 l 774 0 m 260 840 l 260 496 l 364 496 q 531 525 478 496 q 601 669 601 565 q 383 840 601 840 l 260 840 z "},"S":{"ha":701,"x_min":35,"x_max":664,"o":"m 664 300 q 577 68 664 156 q 346 -19 490 -19 q 119 69 204 -19 q 35 300 35 157 l 203 300 q 239 186 203 232 q 343 136 278 136 q 452 179 413 136 q 492 292 492 222 q 381 432 492 376 q 175 529 278 481 q 64 736 64 604 q 147 942 64 865 q 360 1019 229 1019 q 564 945 489 1019 q 639 742 639 871 l 475 742 q 442 833 475 799 q 354 867 410 867 q 265 835 299 867 q 231 749 231 804 q 238 708 231 728 q 354 613 256 661 q 501 546 428 579 q 642 406 600 490 q 664 300 664 360 z "},"T":{"ha":600,"x_min":17,"x_max":585,"o":"m 585 843 l 388 843 l 388 0 l 214 0 l 214 843 l 17 843 l 17 1000 l 585 1000 l 585 843 z "},"U":{"ha":832,"x_min":81,"x_max":751,"o":"m 751 364 q 675 92 751 192 q 422 -19 589 -19 q 165 83 256 -19 q 81 350 81 181 l 81 1000 l 253 1000 l 253 365 q 419 139 253 139 q 551 210 514 139 q 579 365 579 261 l 579 1000 l 751 1000 l 751 364 z "},"V":{"ha":854,"x_min":-12,"x_max":867,"o":"m 867 1000 l 513 0 l 342 0 l -12 1000 l 168 1000 l 428 210 l 686 1000 l 867 1000 z "},"W":{"ha":1222,"x_min":-11,"x_max":1231,"o":"m 1231 1000 l 938 0 l 783 0 l 610 724 l 436 0 l 282 0 l -11 1000 l 165 1000 l 363 258 l 546 1000 l 676 1000 l 857 258 l 1056 1000 l 1231 1000 z "},"X":{"ha":875,"x_min":1,"x_max":874,"o":"m 874 0 l 675 0 l 436 382 l 199 0 l 1 0 l 339 513 l 18 1000 l 217 1000 l 439 639 l 657 1000 l 858 1000 l 538 511 l 874 0 z "},"Y":{"ha":740,"x_min":-21,"x_max":763,"o":"m 763 1000 l 457 364 l 457 0 l 283 0 l 283 368 l -21 1000 l 169 1000 l 371 540 l 572 1000 l 763 1000 z "},"Z":{"ha":671,"x_min":26,"x_max":644,"o":"m 644 0 l 26 0 l 26 150 l 440 839 l 47 839 l 47 1000 l 638 1000 l 638 853 l 218 160 l 644 160 l 644 0 z "},"[":{"ha":447,"x_min":96,"x_max":397,"o":"m 397 -303 l 96 -303 l 96 1010 l 397 1010 l 397 881 l 253 881 l 253 -172 l 397 -172 l 397 -303 z "},"\\":{"ha":493,"x_min":25,"x_max":504,"o":"m 504 -131 l 361 -131 l 25 1015 l 168 1015 l 504 -131 z "},"]":{"ha":447,"x_min":51,"x_max":351,"o":"m 351 -303 l 51 -303 l 51 -172 l 194 -172 l 194 881 l 51 881 l 51 1010 l 351 1010 l 351 -303 z "},"^":{"ha":1258,"x_min":232,"x_max":1026,"o":"m 1026 590 l 872 590 l 629 883 l 385 590 l 232 590 l 553 1001 l 706 1001 l 1026 590 z "},"_":{"ha":699,"x_min":-4,"x_max":703,"o":"m 703 -290 l -4 -290 l -4 -200 l 703 -200 l 703 -290 z "},"`":{"ha":715,"x_min":183,"x_max":475,"o":"m 475 882 l 401 838 l 183 1046 l 283 1122 l 475 882 z "},"a":{"ha":868,"x_min":40,"x_max":793,"o":"m 793 0 l 642 0 l 642 89 q 407 -17 550 -17 q 144 92 247 -17 q 40 361 40 201 q 144 626 40 517 q 403 736 249 736 q 638 635 550 736 l 638 717 l 793 717 l 793 0 m 643 356 q 578 523 643 453 q 418 593 514 593 q 260 524 325 593 q 194 361 194 454 q 260 195 194 267 q 421 124 326 124 q 576 194 510 124 q 643 356 643 265 z "},"b":{"ha":868,"x_min":74,"x_max":826,"o":"m 826 361 q 723 91 826 199 q 457 -17 619 -17 q 224 89 318 -17 l 224 0 l 74 0 l 74 1069 l 228 1069 l 228 638 q 465 736 326 736 q 724 627 621 736 q 826 361 826 518 m 672 361 q 606 524 672 454 q 446 593 539 593 q 288 522 353 593 q 224 357 224 451 q 288 194 224 265 q 444 124 353 124 q 606 194 540 124 q 672 361 672 264 z "},"c":{"ha":801,"x_min":38,"x_max":767,"o":"m 767 251 q 637 52 729 124 q 411 -19 544 -19 q 143 88 249 -19 q 38 358 38 196 q 143 629 38 522 q 413 736 249 736 q 638 667 546 736 q 765 469 731 597 l 606 469 q 404 593 549 593 q 250 525 308 593 q 192 358 192 457 q 251 193 192 260 q 411 122 314 122 q 532 156 479 122 q 606 251 585 190 l 767 251 z "},"d":{"ha":868,"x_min":40,"x_max":793,"o":"m 793 0 l 642 0 l 642 86 q 407 -17 553 -17 q 144 92 247 -17 q 40 361 40 201 q 144 626 40 517 q 401 736 247 736 q 639 638 543 736 l 639 1069 l 793 1069 l 793 0 m 643 356 q 580 523 643 453 q 421 593 517 593 q 260 525 325 593 q 194 361 194 457 q 259 194 194 264 q 421 125 324 125 q 578 194 514 125 q 643 356 643 263 z "},"e":{"ha":815,"x_min":38,"x_max":778,"o":"m 778 306 l 193 306 q 267 168 208 222 q 410 114 326 114 q 593 226 535 114 l 764 226 q 410 -19 672 -19 q 142 88 247 -19 q 38 358 38 194 q 144 626 38 515 q 407 738 251 738 q 622 673 529 738 q 754 493 715 608 q 778 306 778 422 m 619 431 q 545 553 601 507 q 411 599 489 599 q 196 431 240 599 l 619 431 z "},"f":{"ha":371,"x_min":22,"x_max":360,"o":"m 360 588 l 256 588 l 256 0 l 101 0 l 101 588 l 22 588 l 22 717 l 100 717 l 100 894 q 265 1090 100 1090 q 360 1069 315 1090 l 360 951 q 318 957 322 957 q 254 869 254 957 l 254 717 l 360 717 l 360 588 z "},"g":{"ha":868,"x_min":40,"x_max":793,"o":"m 793 78 q 701 -212 793 -107 q 422 -325 604 -325 q 197 -268 289 -325 q 69 -81 96 -203 l 243 -81 q 310 -164 257 -135 q 415 -190 356 -190 q 604 -78 547 -190 q 631 -6 624 -40 q 638 88 638 28 q 410 -17 549 -17 q 144 91 249 -17 q 40 361 40 199 q 144 626 40 517 q 404 736 249 736 q 639 635 549 736 l 639 717 l 793 717 l 793 78 m 642 354 q 578 521 642 450 q 419 592 514 592 q 260 524 325 592 q 194 361 194 456 q 258 192 194 258 q 422 125 321 125 q 577 194 513 125 q 642 354 642 263 z "},"h":{"ha":768,"x_min":76,"x_max":693,"o":"m 693 0 l 538 0 l 538 382 q 392 588 538 588 q 232 346 232 588 l 232 0 l 76 0 l 76 1069 l 232 1069 l 232 638 q 424 731 292 731 q 628 644 557 731 q 693 429 693 565 l 693 0 z "},"i":{"ha":306,"x_min":76,"x_max":229,"o":"m 228 865 l 79 865 l 79 1025 l 228 1025 l 228 865 m 229 0 l 76 0 l 76 717 l 229 717 l 229 0 z "},"j":{"ha":313,"x_min":-25,"x_max":236,"o":"m 233 865 l 83 865 l 83 1025 l 233 1025 l 233 865 m 82 717 l 236 717 l 236 -87 q 168 -271 236 -215 q -25 -321 107 -321 l -25 -190 q 59 -164 36 -190 q 82 -75 82 -137 l 82 717 z "},"k":{"ha":668,"x_min":75,"x_max":679,"o":"m 679 0 l 494 0 l 228 358 l 228 0 l 75 0 l 75 1069 l 228 1069 l 228 392 l 467 717 l 644 717 l 383 381 l 679 0 z "},"l":{"ha":308,"x_min":76,"x_max":231,"o":"m 231 0 l 76 0 l 76 1069 l 231 1069 l 231 0 z "},"m":{"ha":1178,"x_min":76,"x_max":1103,"o":"m 1103 0 l 949 0 l 949 411 q 810 593 949 593 q 689 525 722 593 q 667 382 667 478 l 667 0 l 517 0 l 517 371 q 494 519 517 469 q 375 593 461 593 q 226 375 226 593 l 226 0 l 76 0 l 76 717 l 218 717 l 218 635 q 406 731 285 731 q 615 607 550 731 q 839 731 681 731 q 1033 653 964 731 q 1103 449 1103 575 l 1103 0 z "},"n":{"ha":776,"x_min":75,"x_max":701,"o":"m 701 0 l 547 0 l 547 390 q 394 588 547 588 q 258 511 297 588 q 231 346 231 456 l 231 0 l 75 0 l 75 717 l 224 717 l 224 636 q 421 731 294 731 q 633 649 561 731 q 701 428 701 569 l 701 0 z "},"o":{"ha":831,"x_min":36,"x_max":794,"o":"m 794 365 q 685 92 794 204 q 415 -19 576 -19 q 146 90 256 -19 q 36 360 36 200 q 147 628 36 517 q 413 740 257 740 q 682 631 569 740 q 794 365 794 521 m 636 358 q 574 526 636 458 q 414 593 513 593 q 256 525 317 593 q 196 358 196 457 q 256 194 196 260 q 415 128 317 128 q 574 194 513 128 q 636 358 636 261 z "},"p":{"ha":868,"x_min":74,"x_max":826,"o":"m 826 354 q 723 91 826 201 q 467 -19 619 -19 q 228 81 326 -19 l 228 -308 l 74 -308 l 74 717 l 225 717 l 225 629 q 460 733 319 733 q 723 624 619 733 q 826 354 826 515 m 672 356 q 607 522 672 453 q 444 592 542 592 q 289 522 354 592 q 224 361 224 453 q 288 194 224 265 q 446 124 351 124 q 606 193 539 124 q 672 356 672 263 z "},"q":{"ha":868,"x_min":40,"x_max":793,"o":"m 793 -308 l 639 -308 l 639 81 q 401 -19 543 -19 q 144 91 249 -19 q 40 354 40 201 q 144 624 40 515 q 407 733 247 733 q 642 629 546 733 l 642 717 l 793 717 l 793 -308 m 643 361 q 578 522 643 453 q 422 592 513 592 q 260 523 325 592 q 196 356 196 454 q 262 193 196 263 q 421 124 328 124 q 579 194 515 124 q 643 361 643 265 z "},"r":{"ha":440,"x_min":75,"x_max":424,"o":"m 424 717 l 424 567 q 369 572 410 572 q 229 400 229 572 l 229 0 l 75 0 l 75 717 l 221 717 l 221 635 q 371 726 279 726 q 424 717 399 726 z "},"s":{"ha":560,"x_min":32,"x_max":522,"o":"m 522 203 q 451 40 522 100 q 276 -19 381 -19 q 100 50 168 -19 q 32 228 32 119 l 178 228 q 281 114 178 114 q 376 201 376 114 q 294 297 376 260 q 140 368 218 333 q 58 522 58 424 q 126 677 58 614 q 285 740 193 740 q 444 685 385 740 q 508 529 503 629 l 361 529 q 281 606 361 606 q 226 585 247 606 q 204 532 204 565 q 286 447 204 483 q 440 374 415 392 q 522 203 522 313 z "},"t":{"ha":381,"x_min":18,"x_max":363,"o":"m 363 588 l 261 588 l 261 0 l 107 0 l 107 588 l 18 588 l 18 717 l 107 717 l 107 950 l 261 950 l 261 717 l 363 717 l 363 588 z "},"u":{"ha":769,"x_min":74,"x_max":690,"o":"m 690 0 l 542 0 l 542 81 q 356 -17 474 -17 q 143 71 217 -17 q 74 294 74 153 l 74 717 l 226 717 l 226 332 q 375 126 226 126 q 510 204 472 126 q 536 368 536 258 l 536 717 l 690 717 l 690 0 z "},"v":{"ha":686,"x_min":8,"x_max":679,"o":"m 679 717 l 401 0 l 276 0 l 8 717 l 168 717 l 343 211 l 522 717 l 679 717 z "},"w":{"ha":988,"x_min":8,"x_max":981,"o":"m 981 717 l 739 0 l 635 0 l 493 481 l 353 0 l 249 0 l 8 717 l 168 717 l 304 249 l 443 717 l 547 717 l 685 249 l 822 717 l 981 717 z "},"x":{"ha":661,"x_min":-6,"x_max":663,"o":"m 663 0 l 490 0 l 329 258 l 167 0 l -6 0 l 242 376 l 18 717 l 190 717 l 332 486 l 476 717 l 653 717 l 422 379 l 663 0 z "},"y":{"ha":708,"x_min":8,"x_max":714,"o":"m 714 717 l 318 -308 l 160 -308 l 288 25 l 8 717 l 171 717 l 367 211 l 551 717 l 714 717 z "},"z":{"ha":546,"x_min":15,"x_max":519,"o":"m 519 0 l 15 0 l 15 115 l 350 588 l 47 588 l 47 717 l 506 717 l 506 576 l 193 132 l 519 132 l 519 0 z "},"{":{"ha":715,"x_min":122,"x_max":610,"o":"m 122 286 l 122 424 q 254 457 214 424 q 300 582 300 493 l 300 781 q 547 1011 300 1011 l 610 1011 l 610 892 q 476 863 503 892 q 450 758 450 833 l 450 554 q 300 353 450 393 q 415 285 381 333 q 450 153 450 238 l 450 19 q 450 -6 450 11 q 449 -31 449 -22 q 483 -153 449 -122 q 610 -183 517 -183 l 610 -303 l 538 -303 q 352 -253 404 -303 q 300 -72 300 -204 l 300 125 q 257 254 300 219 q 122 286 219 286 z "},"|":{"ha":699,"x_min":281,"x_max":422,"o":"m 422 -314 l 281 -314 l 281 1040 l 422 1040 l 422 -314 z "},"}":{"ha":715,"x_min":106,"x_max":593,"o":"m 593 286 q 458 254 497 286 q 415 125 415 218 l 415 -72 q 363 -253 415 -204 q 178 -303 311 -303 l 106 -303 l 106 -183 q 240 -144 210 -183 q 267 -4 267 -112 q 267 74 267 22 q 265 153 265 126 q 300 285 265 238 q 415 353 335 333 q 265 554 265 393 l 265 758 q 240 863 265 835 q 106 892 214 892 l 106 1011 l 168 1011 q 415 781 415 1011 l 415 582 q 461 457 415 494 q 593 424 503 424 l 593 286 z "},"~":{"ha":1082,"x_min":114,"x_max":969,"o":"m 957 524 l 969 392 q 725 288 849 288 q 540 335 660 288 q 356 382 421 382 q 126 278 257 382 l 114 410 q 357 514 239 514 q 547 467 425 514 q 728 421 669 421 q 957 524 833 421 z "},"¤":{"ha":847,"x_min":42,"x_max":810,"o":"m 810 258 l 739 189 l 604 325 q 428 265 525 265 q 247 325 328 265 l 111 189 l 43 258 l 178 394 q 121 571 121 468 q 178 749 121 671 l 42 886 l 111 953 l 247 818 q 425 876 329 876 q 604 818 526 876 l 739 953 l 810 886 l 674 749 q 729 571 729 671 q 674 394 729 468 l 810 258 m 428 765 q 290 709 347 765 q 233 572 233 653 q 290 436 233 493 q 426 379 347 379 q 563 436 506 379 q 619 572 619 493 q 563 708 619 651 q 428 765 507 765 z "},"¦":{"ha":699,"x_min":281,"x_max":422,"o":"m 422 447 l 281 447 l 281 996 l 422 996 l 422 447 m 422 -281 l 281 -281 l 281 268 l 422 268 l 422 -281 z "},"§":{"ha":754,"x_min":56,"x_max":700,"o":"m 700 372 q 574 174 700 239 q 636 24 636 111 q 551 -147 636 -82 q 365 -207 474 -207 q 178 -140 253 -207 q 103 39 103 -72 l 246 39 q 376 -78 246 -78 q 492 17 492 -78 q 462 85 492 58 q 275 192 432 113 q 122 286 163 247 q 56 447 56 350 q 179 651 56 564 q 121 792 121 704 q 197 960 121 896 q 375 1019 268 1019 q 560 958 489 1019 q 633 782 633 893 l 493 782 q 459 863 493 833 q 372 892 425 892 q 267 803 267 892 q 272 771 267 786 q 399 674 286 732 l 589 575 q 700 372 700 518 m 557 358 q 447 489 557 432 l 267 582 q 196 476 196 543 q 231 397 196 431 q 306 347 253 376 l 486 250 q 557 358 557 289 z "},"©":{"ha":1150,"x_min":65,"x_max":1085,"o":"m 65 500 q 219 855 65 701 q 574 1008 372 1008 q 936 861 788 1008 q 1085 500 1085 714 q 934 140 1085 290 q 574 -10 783 -10 q 216 142 367 -10 q 65 500 65 293 m 142 500 q 269 194 142 322 q 575 67 397 67 q 876 199 744 67 q 1007 500 1007 331 q 882 808 1007 682 q 575 933 757 933 q 269 806 396 933 q 142 500 142 679 m 825 407 q 745 251 814 308 q 575 194 676 194 q 372 288 447 194 q 303 504 303 374 q 375 719 303 635 q 579 810 451 810 q 739 760 672 810 q 819 615 811 706 l 708 615 q 574 721 694 721 q 454 647 493 721 q 424 501 424 589 q 457 356 424 414 q 581 286 499 286 q 715 407 694 286 l 825 407 z "},"«":{"ha":681,"x_min":56,"x_max":611,"o":"m 611 188 l 482 188 l 311 401 l 482 615 l 611 615 l 444 400 l 611 188 m 353 188 l 226 188 l 56 401 l 226 615 l 353 615 l 188 400 l 353 188 z "},"¬":{"ha":1082,"x_min":143,"x_max":936,"o":"m 936 225 l 813 225 l 813 471 l 143 471 l 143 597 l 936 597 l 936 225 z "},"®":{"ha":1150,"x_min":65,"x_max":1085,"o":"m 1085 500 q 934 140 1085 290 q 574 -10 783 -10 q 217 142 368 -10 q 65 500 65 294 q 218 856 65 703 q 574 1008 371 1008 q 935 860 786 1008 q 1085 500 1085 713 m 1007 496 q 885 808 1007 683 q 575 933 763 933 q 269 806 396 933 q 142 500 142 679 q 269 196 142 325 q 572 67 397 67 q 881 190 754 67 q 1007 496 1007 314 m 815 208 l 689 208 l 503 465 l 503 208 l 399 208 l 399 797 l 590 797 q 813 604 813 797 q 764 483 813 535 q 646 428 715 431 l 815 208 m 575 707 l 503 707 l 503 500 l 565 500 q 665 517 633 500 q 711 603 711 540 q 575 707 711 707 z "},"°":{"ha":482,"x_min":44,"x_max":439,"o":"m 439 796 q 381 656 439 715 q 242 597 322 597 q 101 655 158 597 q 44 796 44 713 q 102 935 44 878 q 242 992 160 992 q 381 935 324 992 q 439 796 439 878 m 363 796 q 328 882 363 847 q 242 917 293 917 q 156 881 192 917 q 121 796 121 846 q 157 710 121 747 q 242 674 193 674 q 328 708 294 674 q 363 796 363 743 z "},"±":{"ha":1082,"x_min":149,"x_max":935,"o":"m 935 454 l 606 454 l 606 247 l 478 247 l 478 454 l 149 454 l 149 581 l 478 581 l 478 788 l 606 788 l 606 581 l 935 581 l 935 454 m 935 15 l 149 15 l 149 142 l 935 142 l 935 15 z "},"¶":{"ha":764,"x_min":32,"x_max":700,"o":"m 700 928 l 619 928 l 619 -33 l 521 -33 l 521 928 l 397 928 l 397 -33 l 296 -33 l 296 524 q 110 588 183 524 q 32 765 32 654 q 115 951 32 885 q 314 1013 192 1013 l 700 1013 l 700 928 z "},"»":{"ha":681,"x_min":69,"x_max":626,"o":"m 456 615 l 626 401 l 456 188 l 328 188 l 494 400 l 329 615 l 456 615 m 199 615 l 369 401 l 199 188 l 69 188 l 238 400 l 69 615 l 199 615 z "},"µ":{"ha":808,"x_min":-17,"x_max":769,"o":"m 731 99 l 715 0 q 626 -6 671 -6 q 525 81 525 -6 q 354 -10 468 -10 q 193 68 253 -10 l 136 -285 l -17 -285 l 146 740 l 299 740 l 233 324 q 226 250 226 279 q 358 114 226 114 q 558 358 521 114 l 617 740 l 769 740 l 692 281 q 676 142 676 190 q 731 99 676 99 z "},"Ё":{"ha":696,"x_min":89,"x_max":617,"o":"m 556 1096 l 407 1096 l 407 1250 l 556 1250 l 556 1096 m 293 1096 l 144 1096 l 144 1250 l 293 1250 l 293 1096 m 617 0 l 89 0 l 89 1000 l 617 1000 l 617 844 l 261 844 l 261 582 l 615 582 l 615 428 l 261 428 l 261 160 l 617 160 l 617 0 z "},"А":{"ha":896,"x_min":-22,"x_max":918,"o":"m 918 0 l 733 0 l 639 253 l 256 253 l 161 0 l -22 0 l 371 1000 l 526 1000 l 918 0 m 583 406 l 449 783 l 313 406 l 583 406 z "},"Б":{"ha":747,"x_min":88,"x_max":708,"o":"m 708 306 q 601 69 708 149 q 346 0 508 0 l 88 0 l 88 1000 l 650 1000 l 650 843 l 257 843 l 257 611 q 486 596 422 611 q 708 306 708 542 m 538 306 q 485 428 538 393 q 350 457 442 457 l 257 457 l 257 157 l 349 157 q 538 306 538 157 z "},"В":{"ha":764,"x_min":89,"x_max":722,"o":"m 722 307 q 354 0 722 0 l 89 0 l 89 1000 l 343 1000 q 571 939 488 1000 q 667 731 667 869 q 557 539 667 601 q 678 451 633 515 q 722 307 722 388 m 496 721 q 340 843 496 843 l 257 843 l 257 588 l 317 588 q 496 721 496 588 m 550 297 q 374 450 550 450 l 257 450 l 257 158 l 372 158 q 532 221 494 158 q 550 297 550 250 z "},"Г":{"ha":626,"x_min":88,"x_max":610,"o":"m 610 843 l 260 843 l 260 0 l 88 0 l 88 1000 l 610 1000 l 610 843 z "},"Д":{"ha":918,"x_min":6,"x_max":914,"o":"m 914 -196 l 751 -196 l 751 0 l 168 0 l 168 -196 l 6 -196 l 6 158 l 85 158 l 369 1000 l 549 1000 l 833 158 l 914 158 l 914 -196 m 664 158 l 460 782 l 254 158 l 664 158 z "},"Е":{"ha":696,"x_min":89,"x_max":617,"o":"m 617 0 l 89 0 l 89 1000 l 617 1000 l 617 844 l 261 844 l 261 582 l 615 582 l 615 428 l 261 428 l 261 160 l 617 160 l 617 0 z "},"Ж":{"ha":1211,"x_min":-10,"x_max":1219,"o":"m 1219 1000 l 863 504 l 1219 0 l 1004 0 l 690 488 l 690 0 l 521 0 l 521 488 l 207 0 l -8 0 l 349 504 l -10 1000 l 192 1000 l 521 517 l 521 1000 l 690 1000 l 690 517 l 1019 1000 l 1219 1000 z "},"З":{"ha":764,"x_min":42,"x_max":718,"o":"m 718 281 q 615 67 718 153 q 382 -19 511 -19 q 144 65 243 -19 q 42 290 42 154 l 222 290 q 267 182 222 221 q 383 143 313 143 q 497 183 451 143 q 543 290 543 224 q 528 364 543 333 q 415 450 492 436 q 265 454 396 454 l 265 588 l 367 588 q 517 732 517 588 q 479 825 517 789 q 385 861 442 861 q 284 826 321 861 q 247 728 247 792 l 69 728 q 161 935 69 851 q 378 1019 253 1019 q 600 944 513 1019 q 692 733 692 865 q 568 529 692 590 q 718 281 718 463 z "},"И":{"ha":963,"x_min":88,"x_max":875,"o":"m 875 0 l 704 0 l 704 707 l 239 0 l 88 0 l 88 1000 l 260 1000 l 260 296 l 725 1000 l 875 1000 l 875 0 z "},"Й":{"ha":963,"x_min":88,"x_max":875,"o":"m 704 1276 q 642 1113 704 1182 q 486 1043 579 1043 q 333 1113 393 1043 q 272 1276 272 1182 l 392 1276 q 414 1194 392 1226 q 488 1157 440 1157 q 583 1276 583 1157 l 704 1276 m 875 0 l 704 0 l 704 707 l 239 0 l 88 0 l 88 1000 l 260 1000 l 260 296 l 725 1000 l 875 1000 l 875 0 z "},"К":{"ha":815,"x_min":96,"x_max":824,"o":"m 824 1000 l 442 504 l 822 0 l 611 0 l 268 485 l 268 0 l 96 0 l 96 1000 l 268 1000 l 268 518 l 626 1000 l 824 1000 z "},"Л":{"ha":849,"x_min":-15,"x_max":864,"o":"m 864 0 l 685 0 l 425 785 l 167 0 l -15 0 l 335 1000 l 514 1000 l 864 0 z "},"М":{"ha":1203,"x_min":88,"x_max":1113,"o":"m 1113 0 l 949 0 l 951 606 q 954 708 951 639 q 957 814 957 778 l 956 813 l 661 0 l 542 0 l 246 814 l 244 813 q 247 707 244 776 q 250 604 250 638 l 254 0 l 88 0 l 88 1000 l 335 1000 l 601 251 l 868 1000 l 1113 1000 l 1113 0 z "},"Н":{"ha":907,"x_min":88,"x_max":819,"o":"m 819 0 l 647 0 l 647 426 l 260 426 l 260 0 l 88 0 l 88 1000 l 260 1000 l 260 588 l 647 588 l 647 1000 l 819 1000 l 819 0 z "},"О":{"ha":1121,"x_min":44,"x_max":1076,"o":"m 1076 504 q 928 133 1076 285 q 561 -19 779 -19 q 195 134 346 -19 q 44 504 44 288 q 197 868 44 717 q 563 1019 350 1019 q 926 869 776 1019 q 1076 504 1076 718 m 900 507 q 799 751 900 646 q 561 856 699 856 q 322 750 422 856 q 221 504 221 644 q 319 251 221 358 q 561 144 418 144 q 807 253 710 144 q 900 507 900 357 z "},"П":{"ha":894,"x_min":88,"x_max":808,"o":"m 808 0 l 636 0 l 636 839 l 260 839 l 260 0 l 88 0 l 88 1000 l 808 1000 l 808 0 z "},"Р":{"ha":754,"x_min":89,"x_max":724,"o":"m 89 0 l 89 1000 l 364 1000 q 619 928 525 1000 q 724 692 724 847 q 625 458 724 540 q 379 381 533 381 l 260 381 l 260 0 l 89 0 m 549 689 q 358 844 549 844 l 260 844 l 260 538 l 353 538 q 492 565 446 538 q 549 689 549 601 z "},"С":{"ha":1063,"x_min":44,"x_max":1019,"o":"m 1019 282 q 837 59 957 138 q 560 -19 717 -19 q 193 133 342 -19 q 44 506 44 286 q 194 869 44 719 q 558 1019 344 1019 q 841 940 718 1019 q 1019 713 964 860 l 824 713 q 557 856 731 856 q 319 751 417 856 q 221 506 221 647 q 317 253 221 361 q 557 144 414 144 q 818 282 731 144 l 1019 282 z "},"Т":{"ha":603,"x_min":18,"x_max":588,"o":"m 588 843 l 389 843 l 389 0 l 215 0 l 215 843 l 18 843 l 18 1000 l 588 1000 l 588 843 z "},"У":{"ha":842,"x_min":-8,"x_max":853,"o":"m 853 1000 l 428 0 l 251 0 l 344 218 l -8 1000 l 172 1000 l 428 421 l 674 1000 l 853 1000 z "},"Ф":{"ha":1069,"x_min":38,"x_max":1032,"o":"m 1032 525 q 619 182 1032 182 l 619 0 l 450 0 l 450 182 q 38 525 38 182 q 258 832 38 771 q 450 850 322 850 l 450 1000 l 619 1000 l 619 850 q 813 832 749 850 q 1032 525 1032 771 m 861 515 q 808 649 861 603 q 667 694 756 694 l 618 694 l 618 338 l 663 338 q 861 515 861 338 m 450 338 l 450 694 l 403 694 q 261 649 314 694 q 208 515 208 603 q 407 338 208 338 l 450 338 z "},"Х":{"ha":875,"x_min":1,"x_max":874,"o":"m 874 0 l 675 0 l 436 382 l 199 0 l 1 0 l 339 513 l 18 1000 l 217 1000 l 439 639 l 657 1000 l 858 1000 l 538 511 l 874 0 z "},"Ц":{"ha":903,"x_min":89,"x_max":900,"o":"m 900 -196 l 738 -196 l 738 0 l 89 0 l 89 1000 l 261 1000 l 261 158 l 638 158 l 638 1000 l 810 1000 l 810 158 l 900 158 l 900 -196 z "},"Ч":{"ha":789,"x_min":57,"x_max":701,"o":"m 701 0 l 529 0 l 529 411 q 340 381 425 381 q 129 465 204 381 q 57 683 57 546 l 57 1000 l 222 1000 l 222 694 q 372 538 222 538 q 529 569 454 538 l 529 1000 l 701 1000 l 701 0 z "},"Ш":{"ha":1294,"x_min":89,"x_max":1207,"o":"m 1207 0 l 89 0 l 89 1000 l 261 1000 l 261 158 l 567 158 l 567 1000 l 728 1000 l 728 158 l 1035 158 l 1035 1000 l 1207 1000 l 1207 0 z "},"Щ":{"ha":1300,"x_min":89,"x_max":1297,"o":"m 1297 -196 l 1135 -196 l 1135 0 l 89 0 l 89 1000 l 261 1000 l 261 158 l 567 158 l 567 1000 l 728 1000 l 728 158 l 1035 158 l 1035 1000 l 1207 1000 l 1207 158 l 1297 158 l 1297 -196 z "},"Ъ":{"ha":861,"x_min":17,"x_max":824,"o":"m 824 306 q 717 69 824 149 q 460 0 624 0 l 200 0 l 200 843 l 17 843 l 17 1000 l 372 1000 l 372 611 q 601 596 538 611 q 824 306 824 542 m 651 306 q 599 428 651 393 q 464 457 556 457 l 372 457 l 372 157 l 463 157 q 651 306 651 157 z "},"Ы":{"ha":1035,"x_min":88,"x_max":947,"o":"m 947 0 l 775 0 l 775 1000 l 947 1000 l 947 0 m 701 306 q 594 71 701 150 q 338 0 500 0 l 88 0 l 88 1000 l 260 1000 l 260 611 q 561 558 458 611 q 701 306 701 486 m 529 306 q 476 428 529 393 q 342 457 433 457 l 260 457 l 260 157 l 340 157 q 529 306 529 157 z "},"Ь":{"ha":749,"x_min":88,"x_max":711,"o":"m 711 306 q 606 69 711 147 q 349 0 513 0 l 88 0 l 88 1000 l 260 1000 l 260 611 q 490 596 426 611 q 711 306 711 543 m 540 306 q 488 428 540 393 q 353 457 444 457 l 260 457 l 260 157 l 351 157 q 540 306 540 157 z "},"Э":{"ha":1058,"x_min":44,"x_max":1014,"o":"m 1014 506 q 867 131 1014 282 q 499 -19 721 -19 q 226 55 344 -19 q 44 268 107 129 l 247 268 q 501 144 335 144 q 717 224 626 144 q 828 428 808 304 l 396 428 l 396 582 l 828 582 q 715 778 806 701 q 501 856 624 856 q 242 728 336 856 l 44 728 q 226 944 103 868 q 500 1019 346 1019 q 864 869 714 1019 q 1014 506 1014 719 z "},"Ю":{"ha":1397,"x_min":88,"x_max":1353,"o":"m 1353 504 q 1215 139 1353 292 q 864 -19 1074 -19 q 545 111 681 -19 q 385 426 410 242 l 260 426 l 260 0 l 88 0 l 88 1000 l 260 1000 l 260 588 l 386 588 q 550 893 414 767 q 865 1019 686 1019 q 1213 866 1072 1019 q 1353 504 1353 713 m 1178 507 q 1090 746 1178 643 q 864 856 997 856 q 639 744 731 856 q 551 504 551 640 q 636 258 551 364 q 864 144 728 144 q 1096 257 1007 144 q 1178 507 1178 360 z "},"Я":{"ha":821,"x_min":49,"x_max":732,"o":"m 732 0 l 560 0 l 560 439 l 257 0 l 49 0 l 325 374 q 133 467 208 379 q 58 672 58 554 q 161 919 58 832 q 419 1000 257 1000 l 732 1000 l 732 0 m 563 490 l 563 843 l 449 843 q 228 669 228 843 q 457 490 228 490 l 563 490 z "},"а":{"ha":868,"x_min":40,"x_max":793,"o":"m 793 0 l 642 0 l 642 89 q 407 -17 550 -17 q 144 92 247 -17 q 40 361 40 201 q 144 626 40 517 q 403 736 249 736 q 638 635 550 736 l 638 717 l 793 717 l 793 0 m 643 356 q 578 523 643 453 q 418 593 514 593 q 260 524 325 593 q 194 361 194 454 q 260 195 194 267 q 421 124 326 124 q 576 194 510 124 q 643 356 643 265 z "},"б":{"ha":829,"x_min":53,"x_max":793,"o":"m 793 354 q 689 85 793 189 q 419 -19 585 -19 q 209 41 297 -19 q 81 215 121 101 q 54 356 58 276 q 53 499 53 378 q 488 1053 53 1053 l 751 1053 l 751 922 l 490 922 q 278 842 349 922 q 207 608 207 761 q 454 715 278 715 q 704 616 615 715 q 793 354 793 517 m 635 347 q 579 510 635 444 q 429 576 524 576 q 273 510 335 576 q 211 347 211 443 q 419 122 211 122 q 578 183 521 122 q 635 347 635 244 z "},"в":{"ha":683,"x_min":75,"x_max":642,"o":"m 642 207 q 367 0 642 0 l 75 0 l 75 717 l 357 717 q 608 522 608 717 q 521 379 608 422 l 521 378 q 608 309 574 356 q 642 207 642 263 m 460 515 q 349 593 460 593 l 226 593 l 226 422 l 342 422 q 460 515 460 422 m 481 211 q 354 307 481 307 l 226 307 l 226 126 l 358 126 q 442 143 403 126 q 481 211 481 160 z "},"г":{"ha":511,"x_min":75,"x_max":492,"o":"m 492 581 l 229 581 l 229 0 l 75 0 l 75 717 l 492 717 l 492 581 z "},"д":{"ha":724,"x_min":6,"x_max":719,"o":"m 719 -151 l 581 -151 l 581 0 l 143 0 l 143 -151 l 6 -151 l 6 133 l 82 133 l 282 717 l 443 717 l 643 133 l 719 133 l 719 -151 m 488 133 l 363 524 l 238 133 l 488 133 z "},"е":{"ha":815,"x_min":38,"x_max":778,"o":"m 778 306 l 193 306 q 267 168 208 222 q 410 114 326 114 q 593 226 535 114 l 764 226 q 410 -19 672 -19 q 142 88 247 -19 q 38 358 38 194 q 144 626 38 515 q 407 738 251 738 q 622 673 529 738 q 754 493 715 608 q 778 306 778 422 m 619 431 q 545 553 601 507 q 411 599 489 599 q 196 431 240 599 l 619 431 z "},"ж":{"ha":1006,"x_min":-12,"x_max":1018,"o":"m 1018 717 l 740 374 l 1018 0 l 831 0 l 576 358 l 576 0 l 428 0 l 428 358 l 176 0 l -12 0 l 265 374 l -11 717 l 164 717 l 428 376 l 428 717 l 576 717 l 576 376 l 843 717 l 1018 717 z "},"з":{"ha":679,"x_min":35,"x_max":638,"o":"m 638 203 q 535 35 638 97 q 333 -19 446 -19 q 131 42 215 -19 q 35 222 38 108 l 192 222 q 342 115 206 115 q 433 135 396 115 q 483 207 483 158 q 407 300 483 279 q 275 310 372 310 l 275 425 q 397 432 372 425 q 464 521 464 450 q 342 610 464 610 q 213 517 213 610 l 61 517 q 150 686 61 625 q 342 740 228 740 q 528 692 453 740 q 615 529 615 635 q 501 381 615 424 q 638 203 638 336 z "},"и":{"ha":789,"x_min":75,"x_max":715,"o":"m 715 0 l 560 0 l 560 488 l 217 0 l 75 0 l 75 717 l 229 717 l 229 235 l 574 717 l 715 717 l 715 0 z "},"й":{"ha":789,"x_min":75,"x_max":715,"o":"m 590 957 q 536 811 590 871 q 396 747 481 747 q 258 810 313 747 q 203 957 203 874 l 307 957 q 330 879 307 911 q 397 847 353 847 q 486 957 486 847 l 590 957 m 715 0 l 560 0 l 560 488 l 217 0 l 75 0 l 75 717 l 229 717 l 229 235 l 574 717 l 715 717 l 715 0 z "},"к":{"ha":669,"x_min":76,"x_max":682,"o":"m 682 0 l 493 0 l 228 358 l 228 0 l 76 0 l 76 717 l 228 717 l 228 385 l 503 717 l 678 717 l 389 374 l 682 0 z "},"л":{"ha":658,"x_min":1,"x_max":658,"o":"m 658 0 l 499 0 l 328 506 l 160 0 l 1 0 l 260 717 l 399 717 l 658 0 z "},"м":{"ha":965,"x_min":75,"x_max":890,"o":"m 890 0 l 742 0 l 744 482 l 542 0 l 424 0 l 221 482 l 224 0 l 75 0 l 75 717 l 275 717 l 483 186 l 690 717 l 890 717 l 890 0 z "},"н":{"ha":761,"x_min":75,"x_max":685,"o":"m 685 0 l 531 0 l 531 299 l 229 299 l 229 0 l 75 0 l 75 717 l 229 717 l 229 428 l 531 428 l 531 717 l 685 717 l 685 0 z "},"о":{"ha":831,"x_min":36,"x_max":794,"o":"m 794 365 q 685 92 794 204 q 415 -19 576 -19 q 146 90 256 -19 q 36 360 36 200 q 147 628 36 517 q 413 740 257 740 q 682 631 569 740 q 794 365 794 521 m 636 358 q 574 526 636 458 q 414 593 513 593 q 256 524 318 593 q 194 358 194 456 q 256 194 194 260 q 415 128 318 128 q 574 194 513 128 q 636 358 636 261 z "},"п":{"ha":749,"x_min":75,"x_max":675,"o":"m 675 0 l 521 0 l 521 583 l 229 583 l 229 0 l 75 0 l 75 717 l 675 717 l 675 0 z "},"р":{"ha":868,"x_min":74,"x_max":826,"o":"m 826 354 q 724 90 826 200 q 467 -19 621 -19 q 228 81 326 -19 l 228 -308 l 74 -308 l 74 717 l 225 717 l 225 629 q 460 733 319 733 q 723 624 619 733 q 826 354 826 515 m 672 356 q 607 522 672 453 q 444 592 542 592 q 289 522 354 592 q 224 361 224 453 q 288 194 224 265 q 446 124 351 124 q 606 193 539 124 q 672 356 672 263 z "},"с":{"ha":801,"x_min":38,"x_max":767,"o":"m 767 251 q 637 52 729 124 q 411 -19 544 -19 q 143 88 249 -19 q 38 358 38 196 q 143 629 38 522 q 413 736 249 736 q 638 667 546 736 q 765 469 731 597 l 606 469 q 404 593 549 593 q 250 525 308 593 q 192 358 192 457 q 251 193 192 260 q 411 122 314 122 q 532 156 479 122 q 606 251 585 190 l 767 251 z "},"т":{"ha":532,"x_min":10,"x_max":522,"o":"m 522 581 l 343 581 l 343 0 l 189 0 l 189 581 l 10 581 l 10 717 l 522 717 l 522 581 z "},"у":{"ha":708,"x_min":8,"x_max":714,"o":"m 714 717 l 318 -308 l 160 -308 l 288 25 l 8 717 l 171 717 l 367 211 l 551 717 l 714 717 z "},"ф":{"ha":1232,"x_min":38,"x_max":1194,"o":"m 1194 358 q 1110 96 1194 200 q 864 -18 1018 -18 q 693 26 767 -18 l 693 -308 l 539 -308 l 539 26 q 368 -18 468 -18 q 122 96 214 -18 q 38 358 38 201 q 119 622 38 517 q 363 738 208 738 q 539 686 463 738 l 539 1069 l 693 1069 l 693 686 q 869 738 772 738 q 1114 622 1025 738 q 1194 358 1194 518 m 851 597 q 693 522 747 597 l 693 194 q 844 122 746 122 q 994 196 939 122 q 1044 360 1044 263 q 996 521 1044 453 q 851 597 940 597 m 539 194 l 539 522 q 382 597 485 597 q 238 522 292 597 q 189 360 189 454 q 240 197 189 265 q 389 122 297 122 q 539 194 481 122 z "},"х":{"ha":661,"x_min":-6,"x_max":663,"o":"m 663 0 l 490 0 l 329 258 l 167 0 l -6 0 l 242 376 l 18 717 l 190 717 l 332 486 l 476 717 l 653 717 l 422 379 l 663 0 z "},"ц":{"ha":754,"x_min":76,"x_max":751,"o":"m 751 -151 l 613 -151 l 613 0 l 76 0 l 76 717 l 231 717 l 231 133 l 521 133 l 521 717 l 675 717 l 675 133 l 751 133 l 751 -151 z "},"ч":{"ha":689,"x_min":51,"x_max":614,"o":"m 614 0 l 460 0 l 460 301 q 275 267 379 267 q 117 319 178 267 q 51 469 51 375 l 51 717 l 201 717 l 201 496 q 299 394 201 394 q 460 429 390 394 l 460 717 l 614 717 l 614 0 z "},"ш":{"ha":1103,"x_min":76,"x_max":1026,"o":"m 1026 0 l 76 0 l 76 717 l 228 717 l 228 133 l 479 133 l 479 717 l 625 717 l 625 133 l 876 133 l 876 717 l 1026 717 l 1026 0 z "},"щ":{"ha":1110,"x_min":79,"x_max":1106,"o":"m 1106 -151 l 968 -151 l 968 0 l 79 0 l 79 717 l 231 717 l 231 133 l 482 133 l 482 717 l 628 717 l 628 133 l 879 133 l 879 717 l 1031 717 l 1031 133 l 1106 133 l 1106 -151 z "},"ъ":{"ha":757,"x_min":17,"x_max":718,"o":"m 718 219 q 635 50 718 107 q 444 0 563 0 l 172 0 l 172 583 l 17 583 l 17 717 l 325 717 l 325 439 q 532 432 490 439 q 696 324 650 411 q 718 219 718 282 m 433 310 l 325 310 l 325 129 l 438 129 q 558 219 558 129 q 433 310 558 310 z "},"ы":{"ha":919,"x_min":76,"x_max":843,"o":"m 843 0 l 689 0 l 689 717 l 843 717 l 843 0 m 621 219 q 539 49 621 106 q 350 0 469 0 l 76 0 l 76 717 l 229 717 l 229 439 l 350 439 q 540 390 469 439 q 621 219 621 333 m 229 310 l 229 129 l 343 129 q 464 219 464 129 q 339 310 464 310 l 229 310 z "},"ь":{"ha":674,"x_min":75,"x_max":633,"o":"m 633 219 q 551 50 633 107 q 361 0 479 0 l 75 0 l 75 717 l 229 717 l 229 439 q 497 421 438 439 q 633 219 633 378 m 229 310 l 229 129 l 353 129 q 476 219 476 129 q 349 310 476 310 l 229 310 z "},"э":{"ha":796,"x_min":35,"x_max":760,"o":"m 760 358 q 653 89 760 197 q 386 -19 547 -19 q 35 243 115 -19 l 196 243 q 386 124 243 124 q 523 172 465 124 q 599 299 581 221 l 336 299 l 336 424 l 599 424 q 526 546 583 499 q 393 593 469 593 q 197 479 249 593 l 35 479 q 163 669 69 601 q 385 736 256 736 q 652 627 544 736 q 760 358 760 518 z "},"ю":{"ha":1063,"x_min":75,"x_max":1026,"o":"m 1026 365 q 926 94 1026 201 q 663 -17 825 -17 q 422 72 522 -17 q 308 299 322 160 l 229 299 l 229 0 l 75 0 l 75 717 l 229 717 l 229 428 l 310 428 q 425 652 326 563 q 658 742 524 742 q 924 636 822 742 q 1026 365 1026 531 m 872 358 q 819 528 872 460 q 663 600 763 600 q 508 526 565 600 q 456 358 456 458 q 510 196 456 263 q 663 124 568 124 q 818 194 760 124 q 872 358 872 260 z "},"я":{"ha":679,"x_min":35,"x_max":604,"o":"m 604 0 l 450 0 l 450 346 l 213 0 l 35 0 l 243 286 q 46 497 46 315 q 126 668 46 611 q 315 717 197 717 l 604 717 l 604 0 m 450 394 l 450 588 l 326 588 q 204 496 204 588 q 344 394 204 394 l 450 394 z "},"ё":{"ha":815,"x_min":38,"x_max":778,"o":"m 618 822 l 476 822 l 476 968 l 618 968 l 618 822 m 343 822 l 203 822 l 203 968 l 343 968 l 343 822 m 778 306 l 193 306 q 267 168 208 222 q 410 114 326 114 q 593 226 535 114 l 764 226 q 410 -19 672 -19 q 142 88 247 -19 q 38 358 38 194 q 144 626 38 515 q 407 738 251 738 q 622 673 529 738 q 754 493 715 608 q 778 306 778 422 m 619 431 q 545 553 601 507 q 411 599 489 599 q 196 431 240 599 l 619 431 z "},"–":{"ha":699,"x_min":-4,"x_max":703,"o":"m 703 326 l -4 326 l -4 457 l 703 457 l 703 326 z "},"—":{"ha":1399,"x_min":-4,"x_max":1403,"o":"m 1403 326 l -4 326 l -4 457 l 1403 457 l 1403 326 z "},"‘":{"ha":350,"x_min":94,"x_max":257,"o":"m 257 650 l 94 650 l 94 832 q 182 996 94 958 q 257 1015 193 1000 l 257 917 q 206 894 215 911 q 196 831 196 876 l 257 831 l 257 650 z "},"’":{"ha":350,"x_min":94,"x_max":257,"o":"m 257 926 l 257 860 q 247 765 257 778 q 153 647 238 674 q 94 636 133 643 l 94 732 q 147 758 135 738 q 156 817 156 774 l 94 817 l 94 1000 l 208 1000 l 257 926 z "},"‚":{"ha":350,"x_min":94,"x_max":256,"o":"m 256 182 l 256 -3 q 94 -185 256 -167 l 94 -86 q 147 -60 135 -83 q 156 0 156 -43 l 94 0 l 94 182 l 256 182 z "},"“":{"ha":604,"x_min":93,"x_max":510,"o":"m 510 650 l 347 650 l 347 832 q 436 996 347 958 q 510 1015 449 1001 l 510 917 q 460 892 471 911 q 449 831 449 874 l 510 831 l 510 650 m 256 650 l 93 650 l 93 832 q 182 996 93 957 q 256 1015 199 1003 l 256 917 q 204 894 214 911 q 194 831 194 876 l 256 831 l 256 650 z "},"”":{"ha":604,"x_min":93,"x_max":510,"o":"m 510 926 l 510 860 q 500 765 510 778 q 407 647 490 672 q 347 636 388 643 l 347 732 q 400 757 388 738 q 410 817 408 772 l 347 817 l 347 1000 l 461 1000 l 510 926 m 256 926 l 256 860 q 246 765 256 778 q 153 647 236 674 q 93 636 151 647 l 93 732 q 146 757 133 738 q 156 817 154 772 l 93 817 l 93 1000 l 207 1000 l 256 926 z "},"„":{"ha":604,"x_min":93,"x_max":510,"o":"m 510 182 l 510 -3 q 347 -185 510 -165 l 347 -86 q 400 -60 388 -82 q 410 0 408 -44 l 347 0 l 347 182 l 510 182 m 256 182 l 256 -3 q 93 -185 256 -165 l 93 -86 q 146 -60 133 -82 q 156 0 154 -44 l 93 0 l 93 182 l 256 182 z "},"†":{"ha":754,"x_min":65,"x_max":690,"o":"m 690 601 l 456 601 l 456 -201 l 300 -201 l 300 601 l 65 601 l 65 736 l 300 736 l 300 1000 l 456 1000 l 456 736 l 690 736 l 690 601 z "},"•":{"ha":872,"x_min":232,"x_max":640,"o":"m 640 521 q 580 376 640 438 q 436 314 519 314 q 292 375 353 314 q 232 521 232 436 q 292 664 232 604 q 436 724 353 724 q 581 665 521 724 q 640 521 640 606 z "},"…":{"ha":1393,"x_min":151,"x_max":1242,"o":"m 1242 0 l 1081 0 l 1081 185 l 1242 185 l 1242 0 m 778 0 l 617 0 l 617 185 l 778 185 l 778 0 m 313 0 l 151 0 l 151 185 l 313 185 l 313 0 z "},"‰":{"ha":1792,"x_min":56,"x_max":1739,"o":"m 1739 226 q 1666 53 1739 126 q 1493 -19 1593 -19 q 1321 54 1394 -19 q 1247 226 1247 128 q 1319 400 1247 329 q 1493 471 1390 471 q 1666 399 1593 471 q 1739 226 1739 326 m 1163 226 q 1090 53 1163 126 q 917 -19 1017 -19 q 743 53 815 -19 q 671 226 671 125 q 744 399 671 328 q 918 471 817 471 q 1090 399 1018 471 q 1163 226 1163 326 m 917 1015 l 413 -15 l 299 -15 l 803 1015 l 917 1015 m 300 1021 q 474 949 401 1021 q 546 775 546 876 q 474 602 546 674 q 300 531 401 531 q 127 602 199 531 q 56 775 56 674 q 127 949 56 876 q 300 1021 199 1021 m 1615 226 q 1579 315 1615 279 q 1490 350 1543 350 q 1402 315 1438 350 q 1367 226 1367 279 q 1403 138 1367 175 q 1490 100 1439 100 q 1579 137 1543 100 q 1615 226 1615 174 m 1039 226 q 1003 314 1039 278 q 915 350 967 350 q 827 314 864 350 q 790 226 790 278 q 827 138 790 175 q 915 100 864 100 q 1003 137 968 100 q 1039 226 1039 174 m 424 775 q 388 864 424 828 q 299 900 351 900 q 209 865 244 900 q 174 775 174 829 q 210 688 174 724 q 299 651 247 651 q 388 687 351 651 q 424 775 424 722 z "},"‹":{"ha":440,"x_min":69,"x_max":368,"o":"m 368 188 l 240 188 l 69 401 l 240 615 l 367 615 l 201 400 l 368 188 z "},"›":{"ha":440,"x_min":72,"x_max":371,"o":"m 200 615 l 371 401 l 200 188 l 72 188 l 239 400 l 74 615 l 200 615 z "},"№":{"ha":1597,"x_min":89,"x_max":1518,"o":"m 1518 476 q 1435 283 1518 365 q 1240 201 1351 201 q 1045 282 1129 201 q 961 472 961 363 q 1043 664 961 583 q 1236 744 1125 744 q 1433 666 1349 744 q 1518 476 1518 588 m 1497 0 l 981 0 l 981 129 l 1497 129 l 1497 0 m 881 0 l 722 0 l 249 739 l 257 0 l 89 0 l 89 1000 l 256 1000 l 721 276 l 714 1000 l 881 1000 l 881 0 m 1376 472 q 1339 574 1376 536 q 1238 613 1301 613 q 1138 574 1175 613 q 1101 472 1101 535 q 1140 373 1101 411 q 1240 335 1179 335 q 1339 373 1301 335 q 1376 472 1376 411 z "},"™":{"ha":1214,"x_min":133,"x_max":1019,"o":"m 1019 575 l 932 575 l 932 904 l 817 575 l 758 575 l 640 904 l 640 575 l 550 575 l 550 1001 l 682 1001 l 789 708 l 890 1001 l 1019 1001 l 1019 575 m 468 924 l 349 924 l 349 575 l 254 575 l 254 924 l 133 924 l 133 1001 l 468 1001 l 468 924 z "},"·":{"ha":408,"x_min":124,"x_max":285,"o":"m 285 376 l 124 376 l 124 561 l 285 561 l 285 376 z "}}}
